<svg viewBox="0 0 2288 503"><path fill="#fff" fill-rule="evenodd" d="M155 92q-11-10-29-10-16 0-25 9t-10 23q0 17 16 27t50 20q34 12 55 22a105 105 0 0137 31q16 20 16 51 0 30-16 55t-44 39a131 131 0 01-31 11l-36-65q16-1 26-9 11-9 11-24 0-13-9-22a71 71 0 00-21-14l-36-12q-34-11-56-21t-37-31Q1 151 1 118q0-49 35-76t93-28q58 0 93 28t38 77h-92q-1-17-13-27zm-51 203c6 5 14 8 22 9l-34 65a157 157 0 01-24-8q-31-13-49-37T0 265h91q2 19 13 30zm338 2q-14 0-20-5t-6-18V162h56V91h-56V23h-85v68h-34v71h34v111q0 51 26 74t72 23h44v-73h-31zm205 77q41 0 74-18a130 130 0 0053-50q19-33 19-76t-19-75a129 129 0 00-52-51q-33-17-74-17t-74 17a129 129 0 00-52 51q-19 32-19 75 0 44 19 76a128 128 0 0051 50q33 18 74 18zm0-74q-24 0-41-18t-16-52q0-34 17-51t41-18q24 0 41 18t17 51q0 34-17 52t-42 18zm175-70q0 44 17 76a123 123 0 0050 50q32 18 73 18 52 0 87-28 36-28 47-77h-91q-12 32-45 32-23 0-37-18t-14-53q0-34 14-52t37-18q33 0 45 32h91q-11-50-47-78t-87-27q-41 0-73 17a123 123 0 00-50 50q-18 33-17 76zm596 140l-117-139 116-140h-106l-84 113V0h-86v370h86V253l85 117h106zm15-140q0 43 16 76t45 50a113 113 0 0062 18q29 0 51-12t35-32v40h86V91h-86v39q-12-19-34-31t-52-12q-34 0-62 17t-45 50q-16 33-16 76zm209 0q0 32-18 51t-43 18q-25 0-43-18t-18-51q0-32 18-50t43-19q26 0 43 19t18 50zm233-93V91h-85v279h85V240q0-34 16-48t48-14h24V88q-28 0-50 13a113 113 0 00-38 36zm321-46l-64 174-65-174h-95l113 269-64 142h92l175-411h-92z"/><path fill="#22d1ee" fill-rule="evenodd" d="M2023 430h-84l-32 73h84zm-112 0h-84l-32 73h84zm-112 0h-84l-32 73h84zm-113 0h-84l-32 73h84zm-112 0h-84l-32 73h84zm-112 0h-84l-32 73h84zm-112 0h-84l-32 73h84zm-112 0h-84l-32 73h84zm-112 0h-84l-32 73h84zm-113 0h-84l-32 73h84zm-112 0h-84l-32 73h84zm-112 0h-84l-32 73h84zm-112 0h-84l-32 73h84zm-112 0h-84l-32 73h84zm-112 0h-84l-32 73h84zm-113 0h-84l-32 73h84zm-112 0h-84l-32 73h84zm-112 0H32L0 503h84z"/></svg>