<svg fill="none" viewBox="0 0 27 36"><path fill="#fff" d="M12.6 6.85c1.2 0 2.18.33 2.95.98a3.62 3.62 0 011.25 2.67h9.25c-.17-3.3-1.43-5.88-3.8-7.72C19.88.93 16.77 0 12.9 0 9.1 0 6.02.92 3.65 2.77 1.28 4.63.1 7.19.1 10.46c0 2.2.52 3.98 1.55 5.35a10.26 10.26 0 003.7 3.1c1.43.7 3.28 1.4 5.55 2.1 1.57.47 2.78.88 3.63 1.25.8.33 1.52.8 2.15 1.4.58.57.87 1.28.87 2.15 0 1.03-.37 1.84-1.1 2.43-.66.52-1.53.8-2.6.86l3.55 6.5c1.1-.23 2.15-.6 3.15-1.09a10.1 10.1 0 005.95-9.35c0-2.1-.52-3.82-1.55-5.15a10.53 10.53 0 00-3.68-3.05 46.38 46.38 0 00-5.52-2.2 26.23 26.23 0 01-5-2.05c-1.07-.63-1.6-1.52-1.6-2.65 0-1.03.32-1.82.95-2.37a3.68 3.68 0 012.5-.83z"/><path fill="#fff" d="M12.69 29.05a4.06 4.06 0 01-2.24-.97A4.4 4.4 0 019.1 25.1H0c.07 2.3.7 4.27 1.93 5.9a11.24 11.24 0 004.87 3.7c.8.32 1.61.58 2.45.77l3.44-6.42z"/></svg>